<svg xmlns="http://www.w3.org/2000/svg" viewBox="0 0 2364.91 1269.08"><defs><style>.cls-1{fill:#fff;}</style></defs><title>abLogo</title><g id="Layer_2" data-name="Layer 2"><g id="Layer_1-2" data-name="Layer 1"><path class="cls-1" d="M2364.91,882.61a392.44,392.44,0,0,1-29.36,149.21c-56.25,139.42-190,237.26-345.7,237.26H1383.64l-70.12-237.26H1936a134.07,134.07,0,0,0,53.81,11.41,132.6,132.6,0,0,0,53.81-11.41c49.33-21.2,84-71.75,84-130.46,0-78.68-63.6-145.54-139.42-145.54,140.24-24.86,238.49-65.63,282.92-127.6a363.37,363.37,0,0,1,72.57,127.6A394,394,0,0,1,2364.91,882.61Z"/><path class="cls-1" d="M1067.62,644.5,854.48,0H606.21A167.2,167.2,0,0,0,450.48,106.4L0,1269.08H203c75.83,0,142.69-49.73,165.11-121.89l25.27-82.76A81.35,81.35,0,0,1,471.27,1007H757.05l-79.5-217.7h-31c-82.76,0-141.87-79.9-117.82-159L639.23,269.47l142,445.84h0l.07.22,23.47,73.72h-.41L872.41,1007h0l21.26,68,3.78,12.09h0l24.29,77.69a148.26,148.26,0,0,0,141.46,104.36h205.16Z"/><path class="cls-1" d="M2364.91,371.39a389.45,389.45,0,0,1-20,124.34c-16.31,49.73-41.18,94.58-73.79,132.49-44.43,62-142.68,102.74-282.92,127.6H1190.4l-83.57-260.09h883c72.56,0,130.86-60.34,130.86-134.94,0-52.18-28.54-97-70.93-119.45a126.63,126.63,0,0,0-119.86,0h-905L947.43,0H2097.06C2252.39,47.7,2364.91,196.09,2364.91,371.39Z"/></g></g></svg>